<svg width="158" height="159" viewBox="0 0 158 159" fill="none" xmlns="http://www.w3.org/2000/svg">
<g filter="url(#filter0_d)">
<path d="M133 73C133 43.1766 108.823 19 79 19C49.1766 19 25 43.1766 25 73V74C25 103.823 49.1766 128 79 128C108.823 128 133 103.823 133 74V73Z" fill="#FF4900"/>
</g>
<path d="M86.9703 59.526C87.4989 60.0546 87.9933 60.6164 88.4503 61.208L88.1503 60.819C89.064 62.0079 89.8231 63.3079 90.4093 64.688C90.3473 64.534 90.2793 64.38 90.2173 64.227C90.8077 65.6413 91.2131 67.1259 91.4233 68.644C91.3993 68.476 91.3753 68.303 91.3563 68.134C91.563 69.6878 91.563 71.2622 91.3563 72.816C91.3803 72.648 91.4043 72.475 91.4233 72.307C91.2133 73.8493 90.8011 75.3573 90.1973 76.792C90.2593 76.638 90.3273 76.484 90.3893 76.331C89.8019 77.7061 89.0428 79.0014 88.1303 80.186L88.4303 79.797C87.5211 80.9657 86.47 82.0168 85.3013 82.926L85.6903 82.626C84.5087 83.5387 83.2152 84.2965 81.8413 84.881C81.9953 84.819 82.1493 84.751 82.3023 84.689C80.8678 85.2933 79.3598 85.7055 77.8173 85.915C77.9853 85.891 78.1583 85.867 78.3263 85.848C76.7725 86.0547 75.1981 86.0547 73.6443 85.848C73.8123 85.872 73.9853 85.896 74.1533 85.915C72.6366 85.7024 71.1537 85.295 69.7413 84.703C69.8953 84.766 70.0493 84.833 70.2023 84.895C68.821 84.3077 67.5199 83.5473 66.3303 82.632L66.7193 82.932C65.5328 82.0122 64.4671 80.9465 63.5473 79.76L63.8473 80.149C62.93 78.9589 62.1707 77.6551 61.5883 76.27C61.6503 76.424 61.7183 76.578 61.7803 76.731C61.1896 75.3155 60.7862 73.8289 60.5803 72.309C60.6043 72.477 60.6283 72.65 60.6473 72.819C60.4406 71.2652 60.4406 69.6908 60.6473 68.137C60.6233 68.305 60.5993 68.478 60.5803 68.647C60.7868 67.1272 61.1902 65.6407 61.7803 64.225C61.7183 64.379 61.6503 64.533 61.5883 64.686C62.1744 63.3027 62.9335 61.9994 63.8473 60.807L63.5473 61.196C64.47 60.0089 65.5373 58.9417 66.7243 58.019L66.3353 58.319C67.5254 57.4017 68.8292 56.6424 70.2143 56.06C70.0603 56.122 69.9063 56.19 69.7533 56.252C71.1688 55.6613 72.6554 55.2579 74.1753 55.052C74.0073 55.076 73.8343 55.1 73.6663 55.119C75.2201 54.9123 76.7945 54.9123 78.3483 55.119C78.1803 55.095 78.0073 55.071 77.8383 55.052C79.3581 55.2585 80.8446 55.6619 82.2603 56.252C82.1063 56.19 81.9523 56.122 81.7993 56.06C83.1829 56.6503 84.4859 57.4137 85.6773 58.332L85.2883 58.032C85.8743 58.508 86.4373 59.003 86.9703 59.532C87.3311 59.8928 87.8205 60.0955 88.3308 60.0955C88.8411 60.0955 89.3305 59.8928 89.6913 59.532C90.0521 59.1711 90.2549 58.6818 90.2549 58.1715C90.2549 57.6612 90.0521 57.1718 89.6913 56.811C87.6571 54.7778 85.1948 53.2243 82.4838 52.2638C79.7729 51.3033 76.8818 50.96 74.0213 51.259C71.9883 51.4504 70.0013 51.9783 68.1413 52.821C65.5088 53.9883 63.1702 55.7288 61.2964 57.9155C59.4225 60.1021 58.0607 62.6797 57.3104 65.46C56.5601 68.2403 56.4403 71.153 56.9597 73.9855C57.479 76.818 58.6244 79.4988 60.3123 81.832C61.5867 83.561 63.1244 85.0795 64.8693 86.332C66.4766 87.4726 68.2524 88.3549 70.1323 88.947C73.8386 90.1211 77.812 90.1559 81.5383 89.047C85.858 87.7319 89.5927 84.9684 92.1133 81.222C94.2924 77.9503 95.4229 74.0923 95.3541 70.1619C95.2854 66.2315 94.0206 62.4154 91.7283 59.222C91.1108 58.366 90.4278 57.5592 89.6853 56.809C89.5084 56.6258 89.2968 56.4796 89.0628 56.379C88.8288 56.2784 88.5772 56.2253 88.3225 56.223C88.0678 56.2206 87.8152 56.269 87.5794 56.3653C87.3436 56.4615 87.1294 56.6038 86.9491 56.7837C86.7688 56.9636 86.6262 57.1777 86.5295 57.4133C86.4328 57.6489 86.384 57.9014 86.3858 58.1561C86.3877 58.4108 86.4403 58.6625 86.5405 58.8967C86.6406 59.1308 86.7864 59.3427 86.9693 59.52L86.9703 59.526Z" fill="white"/>
<path d="M90.2294 80.579L100.693 91.048C100.824 91.1852 100.895 91.3678 100.894 91.557C100.892 91.7462 100.816 91.9273 100.683 92.062L97.5684 95.1819C97.4333 95.314 97.2523 95.3888 97.0634 95.3906C96.8745 95.3925 96.6922 95.3213 96.5544 95.192L86.0864 84.722C87.6856 83.5779 89.0854 82.1782 90.2294 80.579V80.579Z" fill="white"/>
<path d="M89.8894 80.921L91.2894 82.321L94.4614 85.493L97.9224 88.954L100.143 91.175C100.297 91.329 100.528 91.487 100.343 91.723C100.231 91.8501 100.11 91.9703 99.9834 92.083L99.2244 92.843L97.5853 94.482C97.4073 94.66 97.1433 95.059 96.8743 94.819C96.2833 94.295 95.7443 93.689 95.1873 93.132L91.8874 89.832L88.4943 86.439L86.5283 84.473L86.4284 84.373C86.3944 84.623 86.3664 84.873 86.3284 85.128C87.9912 83.9401 89.4478 82.4875 90.6403 80.828C90.7044 80.7178 90.7222 80.5866 90.6898 80.4633C90.6574 80.3399 90.5774 80.2345 90.4674 80.17C90.3561 80.1105 90.2264 80.0952 90.1044 80.1273C89.9824 80.1594 89.877 80.2365 89.8093 80.343C88.706 81.8694 87.3658 83.2096 85.8394 84.313C85.777 84.351 85.7238 84.4024 85.6839 84.4636C85.644 84.5248 85.6183 84.5941 85.6087 84.6666C85.5991 84.739 85.6059 84.8126 85.6285 84.8821C85.6511 84.9516 85.689 85.0151 85.7393 85.068L87.1864 86.515L90.4794 89.808L93.9733 93.303L96.0784 95.408L96.1984 95.528C96.4288 95.745 96.7339 95.8651 97.0504 95.8632C97.3669 95.8614 97.6705 95.7377 97.8983 95.518C98.2873 95.158 98.6483 94.768 99.0233 94.393L100.686 92.73C100.797 92.619 100.912 92.514 101.018 92.398C101.236 92.1684 101.357 91.8642 101.357 91.548C101.357 91.2318 101.236 90.9276 101.018 90.698C100.532 90.174 100.004 89.684 99.4993 89.179L96.1994 85.879L92.7053 82.385L90.6574 80.337L90.5574 80.237C90.1334 79.801 89.4514 80.483 89.8894 80.921Z" fill="white"/>
<path d="M68.8351 74.6349C70.3445 73.2316 71.8555 71.8296 73.3681 70.429C73.5841 70.229 73.8011 70.029 74.0221 69.823H71.3011C72.4598 71.073 73.6181 72.321 74.7761 73.567C74.9391 73.745 75.1031 73.9179 75.2661 74.0959C75.6284 74.4542 76.1167 74.656 76.6261 74.658C77.1324 74.6408 77.6154 74.4412 77.9861 74.0959C78.8701 73.2739 79.7551 72.4569 80.6391 71.6349L84.8451 67.735L85.8161 66.835H83.0951C84.2438 68.075 85.3925 69.3136 86.5411 70.5509C86.7041 70.7289 86.8681 70.907 87.0311 71.08C87.3934 71.4382 87.8817 71.64 88.3911 71.642C88.8974 71.6248 89.3804 71.4252 89.7511 71.08C90.8618 70.0513 91.9721 69.021 93.0821 67.989C94.8508 66.3496 96.6198 64.709 98.3891 63.067L99.6001 61.942C99.9571 61.5791 100.157 61.0905 100.157 60.5815C100.157 60.0724 99.9571 59.5838 99.6001 59.2209C99.234 58.8703 98.7466 58.6746 98.2396 58.6746C97.7327 58.6746 97.2453 58.8703 96.8791 59.2209C95.7685 60.2496 94.6581 61.28 93.5481 62.312C91.7795 63.9513 90.0105 65.5919 88.2411 67.2339L87.0302 68.3589H89.7511C88.6025 67.1189 87.4538 65.8806 86.3051 64.644C86.1421 64.466 85.9781 64.288 85.8151 64.115C85.4529 63.7567 84.9646 63.5549 84.4551 63.5529C83.9489 63.5701 83.4658 63.7697 83.0951 64.115C82.2111 64.937 81.3261 65.754 80.4421 66.576L76.2361 70.476L75.2652 71.376H77.9861C76.8275 70.126 75.6691 68.878 74.5111 67.632C74.3481 67.454 74.1841 67.281 74.0211 67.103C73.6589 66.7447 73.1706 66.5429 72.6611 66.541C72.1549 66.5581 71.6719 66.7577 71.3011 67.103C69.7918 68.5063 68.2808 69.9083 66.7681 71.309C66.5521 71.509 66.3352 71.7089 66.1142 71.9149C65.7572 72.2778 65.5571 72.7664 65.5571 73.2755C65.5571 73.7845 65.7572 74.2731 66.1142 74.636C66.4797 74.9878 66.9673 75.1843 67.4746 75.1843C67.982 75.1843 68.4696 74.9878 68.8351 74.636V74.6349Z" fill="white"/>
<defs>
<filter id="filter0_d" x="0" y="0" width="158" height="159" filterUnits="userSpaceOnUse" color-interpolation-filters="sRGB">
<feFlood flood-opacity="0" result="BackgroundImageFix"/>
<feColorMatrix in="SourceAlpha" type="matrix" values="0 0 0 0 0 0 0 0 0 0 0 0 0 0 0 0 0 0 127 0" result="hardAlpha"/>
<feOffset dy="6"/>
<feGaussianBlur stdDeviation="12.5"/>
<feColorMatrix type="matrix" values="0 0 0 0 0.529412 0 0 0 0 0.529412 0 0 0 0 0.529412 0 0 0 0.161 0"/>
<feBlend mode="normal" in2="BackgroundImageFix" result="effect1_dropShadow"/>
<feBlend mode="normal" in="SourceGraphic" in2="effect1_dropShadow" result="shape"/>
</filter>
</defs>
</svg>
