<svg width="158" height="159" viewBox="0 0 158 159" fill="none" xmlns="http://www.w3.org/2000/svg">
<g filter="url(#filter0_d)">
<path d="M133 73C133 43.1766 108.823 19 79 19C49.1766 19 25 43.1766 25 73V74C25 103.823 49.1766 128 79 128C108.823 128 133 103.823 133 74V73Z" fill="#FF4900"/>
</g>
<path d="M63.6151 93.3129H72.9371V89.3129H63.6151C63.0846 89.3129 62.5759 89.1022 62.2009 88.7271C61.8258 88.352 61.6151 87.8433 61.6151 87.3129V70.6729H97.5751V60.6849C97.5751 59.0955 96.9437 57.5711 95.8198 56.4472C94.6959 55.3233 93.1715 54.6919 91.5821 54.6919H63.6151C62.0256 54.6919 60.5013 55.3233 59.3774 56.4472C58.2535 57.5711 57.6221 59.0955 57.6221 60.6849V87.3199C57.6221 88.9093 58.2535 90.4337 59.3774 91.5576C60.5013 92.6815 62.0256 93.3129 63.6151 93.3129V93.3129ZM93.5791 60.6849V66.6779H73.6031V58.6919H91.5821C92.1108 58.6927 92.6177 58.9028 92.9919 59.2763C93.3661 59.6497 93.5772 60.1562 93.5791 60.6849V60.6849ZM63.6151 58.6919H69.6081V66.6829H61.6221V60.6849C61.6239 60.1569 61.8345 59.651 62.2078 59.2777C62.5812 58.9043 63.0871 58.6937 63.6151 58.6919V58.6919Z" fill="white"/>
<path d="M98.5461 83.8439C99.1104 83.3154 99.5625 82.6788 99.8758 81.9721C100.189 81.2653 100.357 80.5028 100.37 79.7299C100.382 78.9569 100.239 78.1893 99.9493 77.4727C99.6593 76.7561 99.2282 76.1051 98.6816 75.5585C98.1349 75.0118 97.4839 74.5807 96.7673 74.2907C96.0507 74.0007 95.2831 73.8578 94.5102 73.8704C93.7372 73.883 92.9747 74.051 92.2679 74.3642C91.5612 74.6775 90.9246 75.1297 90.3961 75.6939L79.0761 87.0139C78.3949 87.6918 77.8547 88.498 77.4867 89.3859C77.1187 90.2738 76.9302 91.2258 76.9321 92.1869V97.3079H82.0531C83.0153 97.3106 83.9684 97.1225 84.8573 96.7544C85.7463 96.3864 86.5535 95.8458 87.2321 95.1639L98.5461 83.8439ZM82.0531 93.3129H80.9321V92.1869C80.9313 91.7494 81.0168 91.3161 81.1836 90.9116C81.3503 90.5072 81.5952 90.1396 81.9041 89.8299L93.2241 78.5099C93.5616 78.202 94.0048 78.0362 94.4615 78.0471C94.9182 78.0579 95.3531 78.2447 95.6754 78.5684C95.9978 78.892 96.1828 79.3276 96.1919 79.7843C96.201 80.2411 96.0334 80.6837 95.7241 81.0199L84.4041 92.3399C83.7801 92.9623 82.9346 93.3119 82.0531 93.3119V93.3129Z" fill="white"/>
<defs>
<filter id="filter0_d" x="0" y="0" width="158" height="159" filterUnits="userSpaceOnUse" color-interpolation-filters="sRGB">
<feFlood flood-opacity="0" result="BackgroundImageFix"/>
<feColorMatrix in="SourceAlpha" type="matrix" values="0 0 0 0 0 0 0 0 0 0 0 0 0 0 0 0 0 0 127 0" result="hardAlpha"/>
<feOffset dy="6"/>
<feGaussianBlur stdDeviation="12.5"/>
<feColorMatrix type="matrix" values="0 0 0 0 0.529412 0 0 0 0 0.529412 0 0 0 0 0.529412 0 0 0 0.161 0"/>
<feBlend mode="normal" in2="BackgroundImageFix" result="effect1_dropShadow"/>
<feBlend mode="normal" in="SourceGraphic" in2="effect1_dropShadow" result="shape"/>
</filter>
</defs>
</svg>
