<svg width="158" height="159" viewBox="0 0 158 159" fill="none" xmlns="http://www.w3.org/2000/svg">
<path d="M133 78.9709C133 49.1636 108.823 25 79 25C49.1766 25 25 49.1636 25 78.9709V80.0291C25 109.836 49.1766 134 79 134C108.823 134 133 109.836 133 80.0291V78.9709Z" fill="#FF4900"/>
<path d="M86.5779 60H71.424C70.2511 60.0015 69.1267 60.468 68.2974 61.2974C67.468 62.1267 67.0015 63.2511 67 64.424V94.8525C67.0015 96.0254 67.468 97.1498 68.2974 97.9791C69.1267 98.8085 70.2511 99.275 71.424 99.2765H86.576C87.7489 99.275 88.8733 98.8085 89.7026 97.9791C90.532 97.1498 90.9985 96.0254 91 94.8525V64.424C90.9985 63.2511 90.532 62.1267 89.7026 61.2974C88.8733 60.468 87.7489 60.0015 86.576 60H86.5779ZM69.1825 66.5438H88.8212V90.5493H69.1825V66.5438ZM71.424 62.1825H86.576C87.1595 62.1846 87.7192 62.4135 88.137 62.8208C88.5547 63.2281 88.7978 63.7818 88.8147 64.365H69.1779C69.1949 63.7805 69.439 63.2257 69.8583 62.8182C70.2777 62.4108 70.8393 62.1827 71.424 62.1825ZM86.576 97.0959H71.424C70.8294 97.0946 70.2595 96.8579 69.839 96.4375C69.4186 96.017 69.1819 95.4471 69.1806 94.8525V92.7327H88.8212V94.8525C88.82 95.4471 88.5832 96.017 88.1628 96.4375C87.7424 96.8579 87.1725 97.0946 86.5779 97.0959H86.576Z" fill="white"/>
<path d="M80.0921 93.8221H77.9106C77.6212 93.8221 77.3436 93.9371 77.139 94.1418C76.9343 94.3464 76.8193 94.624 76.8193 94.9134C76.8193 95.2028 76.9343 95.4804 77.139 95.685C77.3436 95.8897 77.6212 96.0046 77.9106 96.0046H80.0931C80.3825 96.0046 80.66 95.8897 80.8647 95.685C81.0693 95.4804 81.1843 95.2028 81.1843 94.9134C81.1843 94.624 81.0693 94.3464 80.8647 94.1418C80.66 93.9371 80.3825 93.8221 80.0931 93.8221H80.0921Z" fill="white"/>
<path d="M74.7292 72.1807C74.6032 72.1116 74.4648 72.0681 74.3219 72.0526C74.179 72.0372 74.0344 72.0502 73.8965 72.0908C73.7586 72.1313 73.6301 72.1988 73.5184 72.2892C73.4067 72.3796 73.3139 72.4912 73.2454 72.6175L70.8491 76.9429C70.7588 77.1042 70.7114 77.2861 70.7114 77.471C70.7114 77.6559 70.7588 77.8377 70.8491 77.9991L73.2454 82.3244C73.3415 82.493 73.4806 82.6329 73.6485 82.7301C73.8164 82.8273 74.0071 82.8781 74.2011 82.8774C74.3861 82.8754 74.5676 82.8272 74.7292 82.7373C74.8556 82.6688 74.9672 82.576 75.0576 82.4643C75.148 82.3526 75.2154 82.2241 75.256 82.0862C75.2966 81.9483 75.3096 81.8038 75.2941 81.6608C75.2787 81.5179 75.2352 81.3795 75.1661 81.2535L73.0463 77.4608L75.1541 73.6682C75.2243 73.5427 75.2689 73.4046 75.2855 73.2618C75.3021 73.119 75.2903 72.9744 75.2508 72.8361C75.2114 72.6979 75.145 72.5688 75.0554 72.4563C74.9659 72.3439 74.8551 72.2502 74.7292 72.1807Z" fill="white"/>
<path d="M81.4415 73.0618C81.3154 72.9927 81.177 72.9492 81.0341 72.9337C80.8912 72.9183 80.7466 72.9313 80.6088 72.9719C80.4709 73.0124 80.3424 73.0799 80.2306 73.1703C80.1189 73.2607 80.0261 73.3723 79.9576 73.4986L76.1392 80.3677C76.0613 80.4934 76.0098 80.6335 75.9878 80.7796C75.9658 80.9258 75.9736 81.0749 76.0109 81.2179C76.0482 81.3609 76.1142 81.4948 76.2048 81.6115C76.2954 81.7283 76.4088 81.8254 76.5381 81.897C76.6674 81.9686 76.8098 82.0132 76.9569 82.0281C77.1039 82.043 77.2524 82.0279 77.3935 81.9836C77.5345 81.9394 77.665 81.867 77.7772 81.7708C77.8894 81.6746 77.9809 81.5566 78.0461 81.424L81.8645 74.5456C82.0051 74.2927 82.0396 73.9944 81.9602 73.7161C81.8809 73.4378 81.6943 73.2025 81.4415 73.0618Z" fill="white"/>
<path d="M84.7575 72.601C84.6893 72.473 84.5964 72.3599 84.484 72.2683C84.3716 72.1767 84.2422 72.1084 84.1031 72.0674C83.964 72.0263 83.8182 72.0134 83.6741 72.0294C83.53 72.0454 83.3906 72.0899 83.2639 72.1604C83.1372 72.2309 83.0258 72.3259 82.9362 72.4399C82.8467 72.5539 82.7807 72.6846 82.7423 72.8244C82.7038 72.9642 82.6935 73.1102 82.7121 73.254C82.7307 73.3978 82.7778 73.5364 82.8506 73.6618L84.9584 77.4544L82.8506 81.2471C82.7815 81.3731 82.738 81.5115 82.7226 81.6544C82.7071 81.7973 82.7201 81.9419 82.7607 82.0798C82.8013 82.2176 82.8687 82.3462 82.9591 82.4579C83.0495 82.5696 83.1611 82.6624 83.2874 82.7309C83.4491 82.8208 83.6306 82.8689 83.8156 82.871C84.0106 82.8707 84.2019 82.8183 84.37 82.7193C84.538 82.6203 84.6765 82.4783 84.7713 82.3079L87.1676 77.9825C87.2579 77.8212 87.3053 77.6393 87.3053 77.4544C87.3053 77.2695 87.2579 77.0877 87.1676 76.9263L84.7575 72.601Z" fill="white"/>
</svg>
