<svg width="158" height="159" viewBox="0 0 158 159" fill="none" xmlns="http://www.w3.org/2000/svg">
<g filter="url(#filter0_d)">
<path d="M133 73C133 43.1766 108.823 19 79 19C49.1766 19 25 43.1766 25 73V74C25 103.823 49.1766 128 79 128C108.823 128 133 103.823 133 74V73Z" fill="#FF4900"/>
</g>
<path d="M86.452 60.5952L86.088 59.5042C86.0651 58.3821 85.8212 57.2755 85.3703 56.2477C84.9193 55.22 84.2701 54.2913 83.4598 53.5147C82.6495 52.7381 81.694 52.1289 80.648 51.722C79.602 51.3151 78.4861 51.1184 77.364 51.1432C76.2419 51.1184 75.126 51.3151 74.08 51.722C73.034 52.1289 72.0786 52.7381 71.2683 53.5147C70.458 54.2913 69.8087 55.22 69.3578 56.2477C68.9068 57.2755 68.6629 58.3821 68.64 59.5042V60.5952C68.3975 60.5805 68.1547 60.6174 67.9275 60.7035C67.7003 60.7895 67.494 60.9229 67.3221 61.0946C67.1503 61.2663 67.0169 61.4726 66.9307 61.6997C66.8444 61.9269 66.8074 62.1697 66.822 62.4122C66.8073 62.6548 66.8442 62.8977 66.9303 63.125C67.0165 63.3522 67.1499 63.5586 67.3217 63.7305C67.4936 63.9023 67.7 64.0357 67.9272 64.1219C68.1545 64.208 68.3974 64.2449 68.64 64.2302H69.73C69.7418 66.2512 70.5499 68.1861 71.979 69.6152C73.4081 71.0443 75.343 71.8524 77.364 71.8642C78.3527 72.0414 79.3701 71.9675 80.3228 71.6493C81.2755 71.3312 82.1332 70.7789 82.817 70.0432C83.5334 69.3312 84.0965 68.4801 84.4716 67.5423C84.8467 66.6045 85.0259 65.5999 84.998 64.5902H86.089C86.3316 64.6049 86.5745 64.568 86.8018 64.4819C87.029 64.3957 87.2354 64.2623 87.4073 64.0905C87.5791 63.9186 87.7125 63.7122 87.7987 63.485C87.8848 63.2577 87.9218 63.0148 87.907 62.7722C87.9997 62.5327 88.0334 62.2744 88.0052 62.0192C87.977 61.7639 87.8878 61.5192 87.7451 61.3057C87.6024 61.0922 87.4104 60.9162 87.1853 60.7925C86.9603 60.6688 86.7087 60.6012 86.452 60.5952ZM80.272 67.5022C79.3975 68.0809 78.4033 68.4539 77.364 68.5932C76.8589 68.5808 76.3616 68.4661 75.9021 68.256C75.4426 68.0459 75.0305 67.7448 74.6907 67.3709C74.3509 66.997 74.0905 66.5581 73.9252 66.0806C73.7599 65.6032 73.6932 65.0972 73.729 64.5932H81.363C81.3918 65.6676 81.0004 66.7109 80.272 67.5012V67.5022ZM82.09 60.5952H72.638V59.5042C72.6568 58.9059 72.7946 58.3173 73.0433 57.7728C73.292 57.2283 73.6467 56.7388 74.0867 56.3328C74.5266 55.9269 75.043 55.6126 75.6057 55.4083C76.1684 55.2041 76.7661 55.114 77.364 55.1432C77.9619 55.1144 78.5596 55.2048 79.1221 55.4093C79.6847 55.6137 80.201 55.9281 80.6408 56.3341C81.0807 56.7401 81.4354 57.2296 81.6842 57.774C81.933 58.3184 82.0709 58.9069 82.09 59.5052V60.5952Z" fill="white"/>
<path d="M99.9022 66.0472C99.6596 66.0325 99.4167 66.0694 99.1894 66.1556C98.9622 66.2417 98.7558 66.3751 98.584 66.547C98.4121 66.7188 98.2787 66.9252 98.1925 67.1524C98.1064 67.3797 98.0695 67.6226 98.0842 67.8652C98.033 68.6196 97.7102 69.3299 97.1755 69.8645C96.6409 70.3992 95.9306 70.722 95.1762 70.7732C94.4218 70.722 93.7116 70.3992 93.1769 69.8645C92.6423 69.3299 92.3194 68.6196 92.2682 67.8652C92.283 67.6227 92.2461 67.3799 92.16 67.1527C92.0739 66.9255 91.9406 66.7192 91.7688 66.5474C91.5971 66.3755 91.3908 66.2421 91.1637 66.1559C90.9366 66.0697 90.6937 66.0326 90.4512 66.0472C90.2086 66.0325 89.9657 66.0694 89.7384 66.1556C89.5112 66.2417 89.3048 66.3751 89.133 66.547C88.9611 66.7188 88.8277 66.9252 88.7415 67.1524C88.6554 67.3797 88.6185 67.6226 88.6332 67.8652C88.7189 69.2919 89.2088 70.6647 90.0457 71.8233C90.8825 72.9819 92.0318 73.8785 93.3592 74.4082V87.4952C91.9362 87.8707 90.6873 88.7281 89.8256 89.9212C88.9638 91.1143 88.5424 92.5693 88.6332 94.0382C88.6185 94.2808 88.6554 94.5238 88.7415 94.751C88.8277 94.9783 88.9611 95.1846 89.133 95.3565C89.3048 95.5283 89.5112 95.6618 89.7384 95.7479C89.9657 95.834 90.2086 95.871 90.4512 95.8562C90.6938 95.871 90.9368 95.834 91.164 95.7479C91.3913 95.6618 91.5976 95.5283 91.7695 95.3565C91.9413 95.1846 92.0747 94.9783 92.1609 94.751C92.247 94.5238 92.284 94.2808 92.2692 94.0382C92.3204 93.2839 92.6433 92.5736 93.1779 92.0389C93.7126 91.5043 94.4228 91.1814 95.1772 91.1302C95.9316 91.1814 96.6419 91.5043 97.1765 92.0389C97.7112 92.5736 98.034 93.2839 98.0852 94.0382C98.0705 94.2808 98.1074 94.5238 98.1935 94.751C98.2797 94.9783 98.4131 95.1846 98.585 95.3565C98.7568 95.5283 98.9632 95.6618 99.1904 95.7479C99.4177 95.834 99.6606 95.871 99.9032 95.8562C100.146 95.871 100.389 95.834 100.616 95.7479C100.843 95.6618 101.05 95.5283 101.221 95.3565C101.393 95.1846 101.527 94.9783 101.613 94.751C101.699 94.5238 101.736 94.2808 101.721 94.0382C101.636 92.6116 101.146 91.2388 100.309 90.0801C99.4719 88.9215 98.3226 88.025 96.9952 87.4952V74.4082C98.4183 74.0327 99.6671 73.1754 100.529 71.9823C101.391 70.7892 101.812 69.3342 101.721 67.8652C101.736 67.6226 101.699 67.3795 101.613 67.1522C101.527 66.9249 101.393 66.7184 101.221 66.5466C101.049 66.3747 100.843 66.2413 100.615 66.1552C100.388 66.0692 100.145 66.0323 99.9022 66.0472V66.0472Z" fill="white"/>
<path d="M77.364 76.2262C72.3216 76.1039 67.327 77.2277 62.823 79.4982C58.825 81.6792 56.28 84.5872 56.28 88.5862V93.6752C56.2653 93.9178 56.3022 94.1607 56.3883 94.388C56.4745 94.6152 56.6079 94.8216 56.7798 94.9934C56.9516 95.1653 57.158 95.2987 57.3852 95.3849C57.6125 95.471 57.8554 95.5079 58.098 95.4932H83.544C83.7866 95.5079 84.0296 95.471 84.2568 95.3849C84.4841 95.2987 84.6904 95.1653 84.8623 94.9934C85.0341 94.8216 85.1675 94.6152 85.2537 94.388C85.3398 94.1607 85.3768 93.9178 85.362 93.6752V90.0402V87.1322C85.3677 86.8899 85.3249 86.649 85.2361 86.4235C85.1473 86.198 85.0144 85.9925 84.845 85.8192C84.6757 85.6458 84.4734 85.5081 84.2501 85.414C84.0267 85.32 83.7868 85.2715 83.5445 85.2715C83.3022 85.2715 83.0623 85.32 82.839 85.414C82.6156 85.5081 82.4133 85.6458 82.244 85.8192C82.0747 85.9925 81.9417 86.198 81.8529 86.4235C81.7641 86.649 81.7213 86.8899 81.727 87.1322V91.4942H73.002V86.7682C73.0168 86.5252 72.9798 86.2819 72.8934 86.0544C72.807 85.8268 72.6733 85.6202 72.501 85.4483C72.3287 85.2764 72.1218 85.1431 71.8941 85.0572C71.6663 84.9713 71.4229 84.9348 71.18 84.9502C70.9374 84.9354 70.6945 84.9724 70.4672 85.0585C70.24 85.1447 70.0336 85.2781 69.8618 85.4499C69.6899 85.6218 69.5565 85.8281 69.4703 86.0554C69.3842 86.2826 69.3473 86.5256 69.362 86.7682V91.4942H60.28V88.2262C60.28 86.4082 61.734 84.2262 65.006 82.7732C68.9358 80.7517 73.3112 79.7516 77.729 79.8652C80.9438 79.7262 84.1547 80.2188 87.18 81.3152C87.4426 81.3874 87.7169 81.4071 87.9871 81.3731C88.2573 81.3391 88.5181 81.252 88.7546 81.1169C88.9911 80.9818 89.1985 80.8013 89.3651 80.5858C89.5316 80.3703 89.6539 80.1241 89.725 79.8612C89.8185 79.6215 89.8528 79.3628 89.825 79.107C89.7972 78.8512 89.7082 78.6059 89.5654 78.3918C89.4226 78.1778 89.2303 78.0014 89.0048 77.8775C88.7793 77.7536 88.5272 77.6859 88.27 77.6802C84.7309 76.6387 81.0524 76.1483 77.364 76.2262V76.2262Z" fill="white"/>
<defs>
<filter id="filter0_d" x="0" y="0" width="158" height="159" filterUnits="userSpaceOnUse" color-interpolation-filters="sRGB">
<feFlood flood-opacity="0" result="BackgroundImageFix"/>
<feColorMatrix in="SourceAlpha" type="matrix" values="0 0 0 0 0 0 0 0 0 0 0 0 0 0 0 0 0 0 127 0" result="hardAlpha"/>
<feOffset dy="6"/>
<feGaussianBlur stdDeviation="12.5"/>
<feColorMatrix type="matrix" values="0 0 0 0 0.529412 0 0 0 0 0.529412 0 0 0 0 0.529412 0 0 0 0.161 0"/>
<feBlend mode="normal" in2="BackgroundImageFix" result="effect1_dropShadow"/>
<feBlend mode="normal" in="SourceGraphic" in2="effect1_dropShadow" result="shape"/>
</filter>
</defs>
</svg>
