<svg xmlns="http://www.w3.org/2000/svg" xmlns:xlink="http://www.w3.org/1999/xlink" width="183" height="184" viewBox="0 0 183 184">
  <defs>
    <filter id="Rectangle_135" x="0" y="0" width="183" height="184" filterUnits="userSpaceOnUse">
      <feOffset dy="6" input="SourceAlpha"/>
      <feGaussianBlur stdDeviation="12.5" result="blur"/>
      <feFlood flood-color="#878787" flood-opacity="0.161"/>
      <feComposite operator="in" in2="blur"/>
      <feComposite in="SourceGraphic"/>
    </filter>
  </defs>
  <g id="Group_1954" data-name="Group 1954" transform="translate(-1045.5 -2641.5)">
    <g transform="matrix(1, 0, 0, 1, 1045.5, 2641.5)" filter="url(#Rectangle_135)">
      <rect id="Rectangle_135-2" data-name="Rectangle 135" width="108" height="109" rx="54" transform="translate(37.5 31.5)" fill="#fff"/>
    </g>
    <g id="noun_SEO_2428979" transform="translate(1114.64 2705.144)">
      <g id="Group_1441" data-name="Group 1441" transform="translate(0 0)">
        <g id="Group_1440" data-name="Group 1440">
          <path id="Path_103" data-name="Path 103" d="M73.929,60.194a17.567,17.567,0,0,1,1.48,1.682l-.3-.389a17.718,17.718,0,0,1,2.259,3.869c-.062-.154-.13-.308-.192-.461a17.806,17.806,0,0,1,1.206,4.417c-.024-.168-.048-.341-.067-.51a17.752,17.752,0,0,1,0,4.682c.024-.168.048-.341.067-.509a17.732,17.732,0,0,1-1.226,4.485c.062-.154.13-.308.192-.461a17.732,17.732,0,0,1-2.259,3.855l.3-.389a17.853,17.853,0,0,1-3.129,3.129l.389-.3A17.509,17.509,0,0,1,68.8,85.549c.154-.062.308-.13.461-.192a17.678,17.678,0,0,1-4.485,1.226c.168-.024.341-.048.509-.067a17.751,17.751,0,0,1-4.682,0c.168.024.341.048.509.067A17.806,17.806,0,0,1,56.7,85.371c.154.063.308.13.461.192A17.718,17.718,0,0,1,53.289,83.3l.389.3a17.854,17.854,0,0,1-3.172-3.172l.3.389a17.4,17.4,0,0,1-2.259-3.879c.062.154.13.308.192.461a17.627,17.627,0,0,1-1.2-4.422c.024.168.048.341.067.51a17.752,17.752,0,0,1,0-4.682c-.024.168-.048.341-.067.51a17.682,17.682,0,0,1,1.2-4.422c-.062.154-.13.308-.192.461a17.783,17.783,0,0,1,2.259-3.879l-.3.389a18.07,18.07,0,0,1,3.177-3.177l-.389.3a17.405,17.405,0,0,1,3.879-2.259c-.154.062-.308.13-.461.192a17.626,17.626,0,0,1,4.422-1.2c-.168.024-.341.048-.509.067a17.751,17.751,0,0,1,4.682,0c-.168-.024-.341-.048-.51-.067a17.682,17.682,0,0,1,4.422,1.2c-.154-.062-.308-.13-.461-.192A17.784,17.784,0,0,1,72.636,59l-.389-.3c.586.476,1.149.971,1.682,1.5a1.924,1.924,0,1,0,2.721-2.721,19.325,19.325,0,0,0-15.67-5.552A18.438,18.438,0,0,0,55.1,53.489,19.337,19.337,0,0,0,47.271,82.5,20.539,20.539,0,0,0,51.828,87a18.907,18.907,0,0,0,5.263,2.615,19.423,19.423,0,0,0,11.406.1,19.64,19.64,0,0,0,10.575-7.825,19.341,19.341,0,0,0-.385-22,20.382,20.382,0,0,0-2.043-2.413,1.919,1.919,0,1,0-2.716,2.711Z" transform="translate(-43.599 -51.812)" fill="#010a44"/>
        </g>
      </g>
      <g id="Group_1443" data-name="Group 1443" transform="translate(28.966 28.951)">
        <path id="Path_104" data-name="Path 104" d="M660.343,664.2l10.464,10.469a.729.729,0,0,1-.01,1.014l-3.115,3.12a.733.733,0,0,1-1.014.01L656.2,668.343a17.9,17.9,0,0,0,4.143-4.143Z" transform="translate(-655.72 -663.716)" fill="#010a44"/>
        <g id="Group_1442" data-name="Group 1442">
          <path id="Path_105" data-name="Path 105" d="M650.5,654.952l1.4,1.4,3.172,3.172,3.461,3.461,2.221,2.221c.154.154.385.312.2.548a4.264,4.264,0,0,1-.36.36l-.759.76-1.639,1.639c-.178.178-.442.577-.711.337-.591-.524-1.13-1.13-1.687-1.687l-3.3-3.3-3.393-3.393-1.966-1.966-.1-.1c-.034.25-.062.5-.1.755a18.688,18.688,0,0,0,4.312-4.3.482.482,0,0,0-.173-.658.5.5,0,0,0-.658.173,17.677,17.677,0,0,1-3.97,3.97.489.489,0,0,0-.1.755l1.447,1.447,3.293,3.293,3.494,3.495,2.105,2.105.12.12a1.232,1.232,0,0,0,1.7-.01c.389-.36.75-.75,1.125-1.125l1.663-1.663c.111-.111.226-.216.332-.332a1.236,1.236,0,0,0,0-1.7c-.486-.524-1.014-1.014-1.519-1.519l-3.3-3.3-3.494-3.494-2.048-2.048-.1-.1C650.744,653.832,650.062,654.514,650.5,654.952Z" transform="translate(-646.217 -654.126)" fill="#010a44"/>
        </g>
      </g>
      <g id="Group_1445" data-name="Group 1445" transform="translate(8.917 7.528)">
        <g id="Group_1444" data-name="Group 1444" transform="translate(0 0)">
          <path id="Path_106" data-name="Path 106" d="M232.39,224.4q2.264-2.105,4.533-4.206c.216-.2.433-.4.654-.606h-2.721q1.738,1.875,3.475,3.744c.163.178.327.351.49.529a1.945,1.945,0,0,0,1.36.562,2.1,2.1,0,0,0,1.36-.562c.884-.822,1.769-1.639,2.653-2.461l4.206-3.9.971-.9h-2.721q1.723,1.86,3.446,3.716c.163.178.327.356.49.529a1.945,1.945,0,0,0,1.36.562,2.1,2.1,0,0,0,1.36-.562q1.666-1.543,3.331-3.091,2.653-2.459,5.307-4.922l1.211-1.125a1.94,1.94,0,0,0,0-2.721,1.967,1.967,0,0,0-2.721,0q-1.666,1.543-3.331,3.091-2.653,2.459-5.307,4.922l-1.211,1.125h2.721q-1.723-1.86-3.446-3.715c-.163-.178-.327-.356-.49-.529a1.945,1.945,0,0,0-1.36-.562,2.1,2.1,0,0,0-1.36.562c-.884.822-1.769,1.639-2.653,2.461l-4.206,3.9-.971.9h2.721q-1.738-1.875-3.475-3.744c-.163-.178-.327-.351-.49-.529a1.945,1.945,0,0,0-1.36-.562,2.1,2.1,0,0,0-1.36.562q-2.264,2.105-4.533,4.206c-.216.2-.433.4-.654.606a1.94,1.94,0,0,0,0,2.721,1.962,1.962,0,0,0,2.721,0Z" transform="translate(-229.112 -208.437)" fill="#ff4900"/>
        </g>
      </g>
    </g>
  </g>
</svg>
