<svg width="183" height="184" viewBox="0 0 183 184" fill="none" xmlns="http://www.w3.org/2000/svg">
<g filter="url(#filter0_d)">
<path d="M146 85C146 55.1766 121.823 31 92 31C62.1766 31 38 55.1766 38 85V86C38 115.823 62.1766 140 92 140C121.823 140 146 115.823 146 86V85Z" fill="white"/>
</g>
<path d="M100.242 64H83.8C82.5274 64.0016 81.3075 64.5078 80.4076 65.4076C79.5078 66.3075 79.0016 67.5274 79 68.8V101.815C79.0016 103.088 79.5078 104.308 80.4076 105.207C81.3075 106.107 82.5274 106.613 83.8 106.615H100.24C101.513 106.613 102.733 106.107 103.632 105.207C104.532 104.308 105.038 103.088 105.04 101.815V68.8C105.038 67.5274 104.532 66.3075 103.632 65.4076C102.733 64.5078 101.513 64.0016 100.24 64H100.242ZM81.368 71.1H102.676V97.146H81.368V71.1ZM83.8 66.368H100.24C100.873 66.3703 101.48 66.6187 101.934 67.0606C102.387 67.5024 102.651 68.1032 102.669 68.736H81.363C81.3815 68.1019 81.6463 67.4999 82.1013 67.0578C82.5563 66.6157 83.1656 66.3683 83.8 66.368V66.368ZM100.24 104.249H83.8C83.1549 104.248 82.5365 103.991 82.0804 103.535C81.6242 103.078 81.3673 102.46 81.366 101.815V99.515H102.676V101.815C102.675 102.46 102.418 103.078 101.962 103.535C101.505 103.991 100.887 104.248 100.242 104.249H100.24Z" fill="#010A44"/>
<path d="M93.2048 100.697H90.8378C90.5238 100.697 90.2226 100.822 90.0006 101.044C89.7786 101.266 89.6538 101.567 89.6538 101.881C89.6538 102.195 89.7786 102.496 90.0006 102.718C90.2226 102.94 90.5238 103.065 90.8378 103.065H93.2058C93.5198 103.065 93.821 102.94 94.043 102.718C94.2651 102.496 94.3898 102.195 94.3898 101.881C94.3898 101.567 94.2651 101.266 94.043 101.044C93.821 100.822 93.5198 100.697 93.2058 100.697H93.2048Z" fill="#010A44"/>
<path d="M87.3862 77.216C87.2494 77.141 87.0992 77.0938 86.9442 77.0771C86.7891 77.0604 86.6323 77.0744 86.4827 77.1185C86.3331 77.1625 86.1937 77.2357 86.0724 77.3337C85.9512 77.4318 85.8505 77.5529 85.7762 77.69L83.1762 82.383C83.0783 82.5581 83.0269 82.7554 83.0269 82.956C83.0269 83.1566 83.0783 83.3539 83.1762 83.529L85.7762 88.222C85.8805 88.4048 86.0314 88.5567 86.2136 88.6622C86.3958 88.7676 86.6027 88.8227 86.8132 88.822C87.0139 88.8198 87.2108 88.7675 87.3862 88.67C87.5233 88.5957 87.6444 88.495 87.7424 88.3738C87.8405 88.2525 87.9137 88.1131 87.9577 87.9635C88.0018 87.8139 88.0158 87.6571 87.9991 87.502C87.9823 87.347 87.9351 87.1967 87.8602 87.06L85.5602 82.945L87.8472 78.83C87.9233 78.6938 87.9717 78.544 87.9897 78.3891C88.0077 78.2341 87.995 78.0772 87.9521 77.9272C87.9093 77.7772 87.8372 77.6372 87.7401 77.5151C87.643 77.3931 87.5227 77.2914 87.3862 77.216V77.216Z" fill="#FF4900"/>
<path d="M94.6688 78.172C94.532 78.097 94.3818 78.0498 94.2268 78.0331C94.0717 78.0163 93.9149 78.0304 93.7653 78.0744C93.6157 78.1185 93.4763 78.1917 93.355 78.2897C93.2338 78.3878 93.1331 78.5089 93.0588 78.646L88.9158 86.099C88.8313 86.2353 88.7754 86.3873 88.7515 86.5459C88.7276 86.7045 88.7361 86.8662 88.7766 87.0214C88.8171 87.1765 88.8887 87.3218 88.987 87.4485C89.0853 87.5752 89.2083 87.6806 89.3486 87.7583C89.4889 87.8359 89.6435 87.8843 89.803 87.9005C89.9625 87.9166 90.1237 87.9002 90.2767 87.8522C90.4297 87.8042 90.5713 87.7257 90.693 87.6213C90.8148 87.5169 90.914 87.3889 90.9848 87.245L95.1278 79.782C95.2803 79.5076 95.3177 79.1839 95.2316 78.8819C95.1456 78.58 94.9431 78.3247 94.6688 78.172V78.172Z" fill="#FF4900"/>
<path d="M98.2671 77.672C98.1931 77.5332 98.0922 77.4105 97.9703 77.3111C97.8484 77.2117 97.7079 77.1376 97.5571 77.0931C97.4062 77.0485 97.248 77.0346 97.0916 77.0519C96.9353 77.0692 96.784 77.1175 96.6465 77.194C96.509 77.2705 96.3882 77.3736 96.291 77.4973C96.1938 77.621 96.1223 77.7628 96.0805 77.9144C96.0388 78.0661 96.0277 78.2246 96.0479 78.3806C96.068 78.5366 96.1191 78.687 96.1981 78.823L98.4851 82.938L96.1981 87.053C96.1231 87.1898 96.0759 87.34 96.0592 87.495C96.0424 87.6501 96.0565 87.8069 96.1005 87.9565C96.1446 88.1061 96.2177 88.2456 96.3158 88.3668C96.4139 88.488 96.535 88.5887 96.6721 88.663C96.8475 88.7605 97.0444 88.8128 97.2451 88.815C97.4567 88.8147 97.6643 88.7578 97.8466 88.6504C98.0289 88.543 98.1792 88.3889 98.2821 88.204L100.882 83.511C100.98 83.3359 101.031 83.1387 101.031 82.938C101.031 82.7374 100.98 82.5401 100.882 82.365L98.2671 77.672Z" fill="#FF4900"/>
<defs>
<filter id="filter0_d" x="13" y="12" width="158" height="159" filterUnits="userSpaceOnUse" color-interpolation-filters="sRGB">
<feFlood flood-opacity="0" result="BackgroundImageFix"/>
<feColorMatrix in="SourceAlpha" type="matrix" values="0 0 0 0 0 0 0 0 0 0 0 0 0 0 0 0 0 0 127 0" result="hardAlpha"/>
<feOffset dy="6"/>
<feGaussianBlur stdDeviation="12.5"/>
<feColorMatrix type="matrix" values="0 0 0 0 0.529412 0 0 0 0 0.529412 0 0 0 0 0.529412 0 0 0 0.161 0"/>
<feBlend mode="normal" in2="BackgroundImageFix" result="effect1_dropShadow"/>
<feBlend mode="normal" in="SourceGraphic" in2="effect1_dropShadow" result="shape"/>
</filter>
</defs>
</svg>
