<svg xmlns="http://www.w3.org/2000/svg" xmlns:xlink="http://www.w3.org/1999/xlink" width="183" height="184" viewBox="0 0 183 184">
  <defs>
    <filter id="Rectangle_144" x="0" y="0" width="183" height="184" filterUnits="userSpaceOnUse">
      <feOffset dy="6" input="SourceAlpha"/>
      <feGaussianBlur stdDeviation="12.5" result="blur"/>
      <feFlood flood-color="#878787" flood-opacity="0.161"/>
      <feComposite operator="in" in2="blur"/>
      <feComposite in="SourceGraphic"/>
    </filter>
  </defs>
  <g id="Group_1955" data-name="Group 1955" transform="translate(-1397.5 -2641.5)">
    <g transform="matrix(1, 0, 0, 1, 1397.5, 2641.5)" filter="url(#Rectangle_144)">
      <rect id="Rectangle_144-2" data-name="Rectangle 144" width="108" height="109" rx="54" transform="translate(37.5 31.5)" fill="#fff"/>
    </g>
    <g id="noun_Technician_2660321" transform="translate(1466.18 2704.943)">
      <path id="Path_6576" data-name="Path 6576" d="M22.63,9.652h0l-.364-1.091A8.537,8.537,0,0,0,13.542.2,8.537,8.537,0,0,0,4.818,8.561V9.652h0A1.717,1.717,0,0,0,3,11.469a1.717,1.717,0,0,0,1.818,1.818H5.908a7.679,7.679,0,0,0,7.634,7.634A6,6,0,0,0,18.995,19.1a7.4,7.4,0,0,0,2.181-5.453h1.091a1.717,1.717,0,0,0,1.818-1.818A1.6,1.6,0,0,0,22.63,9.652Zm-6.18,6.907a6.941,6.941,0,0,1-2.908,1.091,3.736,3.736,0,0,1-3.635-4h7.634A4.128,4.128,0,0,1,16.45,16.558Zm1.818-6.907H8.816V8.561A4.508,4.508,0,0,1,13.542,4.2a4.511,4.511,0,0,1,4.726,4.362Z" transform="translate(7.642)" fill="#010a44"/>
      <path id="Path_6577" data-name="Path 6577" d="M20.269,4.3a1.717,1.717,0,0,0-1.818,1.818,3.127,3.127,0,0,1-2.908,2.908,3.127,3.127,0,0,1-2.908-2.908A1.717,1.717,0,0,0,10.818,4.3,1.717,1.717,0,0,0,9,6.118a7.531,7.531,0,0,0,4.726,6.543V25.748A6.361,6.361,0,0,0,9,32.291a1.717,1.717,0,0,0,1.818,1.818,1.717,1.717,0,0,0,1.818-1.818,3.127,3.127,0,0,1,2.908-2.908,3.127,3.127,0,0,1,2.908,2.908,1.717,1.717,0,0,0,1.818,1.818,1.717,1.717,0,0,0,1.818-1.818,7.531,7.531,0,0,0-4.726-6.543V12.661a6.361,6.361,0,0,0,4.726-6.543A1.717,1.717,0,0,0,20.269,4.3Z" transform="translate(23.453 10.804)" fill="#ff4900"/>
      <path id="Path_6578" data-name="Path 6578" d="M21.184,7.1A30.652,30.652,0,0,0,6.643,10.372C2.645,12.553.1,15.461.1,19.46v5.089a1.717,1.717,0,0,0,1.818,1.818H27.364a1.717,1.717,0,0,0,1.818-1.818V20.914h0V18.006a1.818,1.818,0,1,0-3.635,0v4.362H16.822V17.642A1.717,1.717,0,0,0,15,15.824a1.717,1.717,0,0,0-1.818,1.818v4.726H4.1V19.1c0-1.818,1.454-4,4.726-5.453a26.335,26.335,0,0,1,12.723-2.908A24.619,24.619,0,0,1,31,12.189a2.068,2.068,0,0,0,2.545-1.454A1.6,1.6,0,0,0,32.09,8.554,35.942,35.942,0,0,0,21.184,7.1Z" transform="translate(0 18.183)" fill="#010a44"/>
    </g>
  </g>
</svg>
